<?xml version="1.0" encoding="iso-8859-1"?>
<!-- Generator: Adobe Illustrator 19.0.0, SVG Export Plug-In . SVG Version: 6.00 Build 0)  -->
<svg version="1.1" id="Layer_1" xmlns="http://www.w3.org/2000/svg" xmlns:xlink="http://www.w3.org/1999/xlink" x="0px" y="0px"
	 viewBox="0 0 511.999 511.999" style="enable-background:new 0 0 511.999 511.999;" xml:space="preserve">
<g>
	<g>
		<path d="M511.206,58.582c-0.526-10.118-6.065-19.205-14.818-24.306c-8.745-5.097-19.368-5.437-28.418-0.913
			c-39.891,19.933-82.725,30.042-127.313,30.042c-44.595,0-87.433-10.107-127.322-30.04c-9.051-4.525-19.676-4.184-28.421,0.912
			c-8.753,5.101-14.292,14.188-14.817,24.292c-0.527,9.93-0.795,20.056-0.795,30.097c0,19.148,0.962,38.206,2.834,56.842
			c-0.265,0.001-0.528,0.011-0.792,0.011c-44.601,0-87.438-10.106-127.321-30.04c-9.047-4.52-19.667-4.179-28.409,0.915
			c-8.753,5.099-14.296,14.181-14.827,24.297C0.265,150.611,0,160.736,0,170.784c0,81.807,17.077,158.903,48.086,217.088
			c32.281,60.573,76.055,93.931,123.257,93.931c47.06,0,90.708-33.164,122.959-93.385c14.983,7.475,30.524,11.267,46.355,11.267
			c47.201,0,90.973-33.358,123.255-93.929c31.01-58.186,48.088-135.284,48.088-217.093C512,78.613,511.733,68.487,511.206,58.582z
			 M301.547,304.629c-6.11,22.188-13.775,42.957-22.904,61.802c-0.019,0.037-0.037,0.075-0.055,0.113
			c-1.658,3.419-3.362,6.779-5.114,10.069c-27.924,52.394-64.194,81.248-102.13,81.248s-74.205-28.854-102.128-81.249
			c-29.194-54.781-45.272-127.879-45.272-205.828c0-9.631,0.254-19.333,0.752-28.841c0.153-2.917,2.127-4.372,2.969-4.864
			c0.644-0.375,1.7-0.834,3.005-0.834c0.802,0,1.699,0.175,2.65,0.65c43.236,21.609,89.674,32.565,138.025,32.565
			c4.796,0,9.566-0.139,14.322-0.354c0.08-0.001,0.162-0.007,0.242-0.01c43.115-1.985,84.586-12.771,123.461-32.201
			c2.498-1.25,4.617-0.42,5.656,0.184c0.842,0.491,2.816,1.947,2.969,4.864c0.499,9.503,0.752,19.206,0.752,28.841
			c0,46.587-5.747,91.438-16.602,131.685C301.873,303.174,301.677,303.898,301.547,304.629z M442.783,294.497
			c-27.923,52.393-64.192,81.247-102.126,81.247c-12.116,0-24.136-2.977-35.853-8.844c7.544-16.965,14.029-35.206,19.394-54.441
			c4.268-4.492,10.144-7.033,16.446-7.033c7.271,0,14.152,3.5,18.407,9.364c2.342,3.227,5.995,4.943,9.699,4.943
			c2.437,0,4.896-0.742,7.02-2.283c5.352-3.882,6.542-11.368,2.66-16.719c-8.744-12.051-22.868-19.247-37.786-19.247
			c-3.107,0-6.159,0.318-9.133,0.904c7.333-35.138,11.174-72.839,11.174-111.603c0-10.051-0.265-20.177-0.785-30.097
			c-0.53-10.113-6.074-19.196-14.827-24.295c-8.744-5.095-19.365-5.434-28.411-0.915c-32.448,16.217-66.852,25.928-102.571,28.986
			c-1.882-18.27-2.849-36.985-2.849-55.8c0-9.619,0.256-19.318,0.761-28.841c0.146-2.813,1.919-4.253,2.963-4.863
			c1.039-0.606,3.157-1.434,5.661-0.181c43.245,21.61,89.684,32.566,138.027,32.566c48.335,0,94.771-10.956,138.017-32.567
			c2.501-1.251,4.62-0.423,5.659,0.182c1.044,0.609,2.817,2.049,2.964,4.877c0.505,9.498,0.761,19.196,0.761,28.825
			C488.058,166.614,471.979,239.715,442.783,294.497z"/>
	</g>
</g>
<g>
	<g>
		<path d="M437.465,146.827c-6.126-2.497-13.11,0.448-15.603,6.57c-2.994,7.35-10.06,12.098-18.002,12.098
			c-7.937,0-15-4.749-17.995-12.099c-2.495-6.122-9.481-9.061-15.603-6.569c-6.123,2.495-9.065,9.48-6.57,15.603
			c6.685,16.406,22.451,27.008,40.167,27.008c17.722,0,33.492-10.6,40.175-27.008C446.529,156.307,443.587,149.321,437.465,146.827z
			"/>
	</g>
</g>
<g>
	<g>
		<path d="M141.039,228.945c-6.121-2.498-13.108,0.445-15.603,6.569c-2.994,7.352-10.061,12.099-18.002,12.099
			c-7.937,0-15-4.749-17.994-12.098c-2.495-6.123-9.48-9.068-15.603-6.57c-6.122,2.494-9.065,9.48-6.57,15.602
			c6.683,16.408,22.451,27.008,40.168,27.008c17.72,0,33.489-10.6,40.174-27.007C150.103,238.425,147.162,231.44,141.039,228.945z"
			/>
	</g>
</g>
<g>
	<g>
		<path d="M268.157,228.945c-6.124-2.498-13.108,0.447-15.603,6.57c-2.994,7.35-10.061,12.098-18.002,12.098
			c-7.937,0-15-4.749-17.995-12.099c-2.494-6.122-9.482-9.062-15.603-6.569c-6.123,2.495-9.065,9.48-6.57,15.603
			c6.685,16.406,22.451,27.008,40.167,27.008c17.722,0,33.492-10.6,40.175-27.008C277.221,238.425,274.28,231.439,268.157,228.945z"
			/>
	</g>
</g>
<g>
	<g>
		<path d="M206.458,365.883c-5.354-3.881-12.839-2.688-16.719,2.665c-4.314,5.95-11.023,9.361-18.407,9.361
			c-7.265,0-14.139-3.5-18.39-9.361c-3.88-5.353-11.365-6.546-16.719-2.665c-5.352,3.881-6.546,11.365-2.665,16.719
			c8.739,12.052,22.86,19.25,37.774,19.25c14.923,0,29.05-7.197,37.789-19.25C213.003,377.248,211.81,369.765,206.458,365.883z"/>
	</g>
</g>
<g>
</g>
<g>
</g>
<g>
</g>
<g>
</g>
<g>
</g>
<g>
</g>
<g>
</g>
<g>
</g>
<g>
</g>
<g>
</g>
<g>
</g>
<g>
</g>
<g>
</g>
<g>
</g>
<g>
</g>
</svg>
