<?xml version="1.0" encoding="iso-8859-1"?>
<!-- Generator: Adobe Illustrator 19.0.0, SVG Export Plug-In . SVG Version: 6.00 Build 0)  -->
<svg version="1.1" id="Capa_1" xmlns="http://www.w3.org/2000/svg" xmlns:xlink="http://www.w3.org/1999/xlink" x="0px" y="0px"
	 viewBox="0 0 512 512" style="enable-background:new 0 0 512 512;" xml:space="preserve">
<g>
	<g>
		<g>
			<path d="M400,0H112C85.49,0,64,21.49,64,48v416c0,26.51,21.49,48,48,48h288c26.51,0,48-21.49,48-48V48C448,21.49,426.51,0,400,0z
				 M416,464c0,8.837-7.163,16-16,16H112c-8.837,0-16-7.163-16-16V48c0-8.837,7.163-16,16-16h288c8.837,0,16,7.163,16,16V464z"/>
			<path d="M256,224c-61.856,0-112,50.144-112,112s50.144,112,112,112s112-50.144,112-112S317.856,224,256,224z M256,416
				c-44.183,0-80-35.817-80-80c0-44.183,35.817-80,80-80s80,35.817,80,80C336,380.183,300.183,416,256,416z"/>
			<path d="M256,192c35.346,0,64-28.654,64-64c0-35.346-28.654-64-64-64c-35.346,0-64,28.654-64,64C192,163.346,220.654,192,256,192
				z M256,96c17.673,0,32,14.327,32,32s-14.327,32-32,32c-17.673,0-32-14.327-32-32S238.327,96,256,96z"/>
			<circle cx="256" cy="336" r="32"/>
		</g>
	</g>
</g>
<g>
</g>
<g>
</g>
<g>
</g>
<g>
</g>
<g>
</g>
<g>
</g>
<g>
</g>
<g>
</g>
<g>
</g>
<g>
</g>
<g>
</g>
<g>
</g>
<g>
</g>
<g>
</g>
<g>
</g>
</svg>
