<?xml version="1.0" encoding="UTF-8" standalone="no"?>
<!-- Generator: Adobe Illustrator 19.1.0, SVG Export Plug-In . SVG Version: 6.00 Build 0)  -->

<svg
   xmlns:dc="http://purl.org/dc/elements/1.1/"
   xmlns:cc="http://creativecommons.org/ns#"
   xmlns:rdf="http://www.w3.org/1999/02/22-rdf-syntax-ns#"
   xmlns:svg="http://www.w3.org/2000/svg"
   xmlns="http://www.w3.org/2000/svg"
   xmlns:sodipodi="http://sodipodi.sourceforge.net/DTD/sodipodi-0.dtd"
   xmlns:inkscape="http://www.inkscape.org/namespaces/inkscape"
   version="1.1"
   id="Capa_1"
   x="0px"
   y="0px"
   viewBox="0 0 477.6 477.6"
   style="enable-background:new 0 0 477.6 477.6;"
   xml:space="preserve"
   sodipodi:docname="001-chat.svg"
   inkscape:version="0.92.2 5c3e80d, 2017-08-06"><metadata
     id="metadata49"><rdf:RDF><cc:Work
         rdf:about=""><dc:format>image/svg+xml</dc:format><dc:type
           rdf:resource="http://purl.org/dc/dcmitype/StillImage" /></cc:Work></rdf:RDF></metadata><defs
     id="defs47" /><sodipodi:namedview
     pagecolor="#ffffff"
     bordercolor="#666666"
     borderopacity="1"
     objecttolerance="10"
     gridtolerance="10"
     guidetolerance="10"
     inkscape:pageopacity="0"
     inkscape:pageshadow="2"
     inkscape:window-width="776"
     inkscape:window-height="480"
     id="namedview45"
     showgrid="false"
     inkscape:zoom="0.49413735"
     inkscape:cx="240.82373"
     inkscape:cy="238.8"
     inkscape:window-x="1440"
     inkscape:window-y="737"
     inkscape:window-maximized="0"
     inkscape:current-layer="g12" /><g
     id="g12"><g
       id="g10"
       style="fill:#ffffff;fill-opacity:1"><path
         d="M407.583,70c-45.1-45.1-105-70-168.8-70s-123.7,24.9-168.8,70c-87,87-93.3,226-15.8,320.2c-10.7,21.9-23.3,36.5-37.6,43.5    c-8.7,4.3-13.6,13.7-12.2,23.3c1.5,9.7,8.9,17.2,18.6,18.7c5.3,0.8,11,1.3,16.9,1.3l0,0c29.3,0,60.1-10.1,85.8-27.8    c34.6,18.6,73.5,28.4,113.1,28.4c63.8,0,123.7-24.8,168.8-69.9s69.9-105.1,69.9-168.8S452.683,115.1,407.583,70z M388.483,388.5    c-40,40-93.2,62-149.7,62c-37.8,0-74.9-10.1-107.2-29.1c-2.1-1.2-4.5-1.9-6.8-1.9c-2.9,0-5.9,1-8.3,2.8    c-30.6,23.7-61.4,27.2-74.9,27.5c16.1-12,29.6-30.6,40.9-56.5c2.1-4.8,1.2-10.4-2.3-14.4c-74-83.6-70.1-211,8.9-290    c40-40,93.2-62,149.7-62s109.7,22,149.7,62C471.083,171.6,471.083,306,388.483,388.5z"
         id="path2"
         style="fill:#ffffff;fill-opacity:1" /><path
         d="M338.783,160h-200c-7.5,0-13.5,6-13.5,13.5s6,13.5,13.5,13.5h200c7.5,0,13.5-6,13.5-13.5S346.183,160,338.783,160z"
         id="path4"
         style="fill:#ffffff;fill-opacity:1" /><path
         d="M338.783,225.3h-200c-7.5,0-13.5,6-13.5,13.5s6,13.5,13.5,13.5h200c7.5,0,13.5-6,13.5-13.5S346.183,225.3,338.783,225.3z"
         id="path6"
         style="fill:#ffffff;fill-opacity:1" /><path
         d="M338.783,290.6h-200c-7.5,0-13.5,6-13.5,13.5s6,13.5,13.5,13.5h200c7.5,0,13.5-6,13.5-13.5S346.183,290.6,338.783,290.6z"
         id="path8"
         style="fill:#ffffff;fill-opacity:1" /></g></g><g
     id="g14" /><g
     id="g16" /><g
     id="g18" /><g
     id="g20" /><g
     id="g22" /><g
     id="g24" /><g
     id="g26" /><g
     id="g28" /><g
     id="g30" /><g
     id="g32" /><g
     id="g34" /><g
     id="g36" /><g
     id="g38" /><g
     id="g40" /><g
     id="g42" /></svg>