<?xml version="1.0" encoding="UTF-8" standalone="no"?>
<!-- Generator: Adobe Illustrator 18.1.1, SVG Export Plug-In . SVG Version: 6.00 Build 0)  -->

<svg
   xmlns:dc="http://purl.org/dc/elements/1.1/"
   xmlns:cc="http://creativecommons.org/ns#"
   xmlns:rdf="http://www.w3.org/1999/02/22-rdf-syntax-ns#"
   xmlns:svg="http://www.w3.org/2000/svg"
   xmlns="http://www.w3.org/2000/svg"
   xmlns:sodipodi="http://sodipodi.sourceforge.net/DTD/sodipodi-0.dtd"
   xmlns:inkscape="http://www.inkscape.org/namespaces/inkscape"
   version="1.1"
   id="Capa_1"
   x="0px"
   y="0px"
   viewBox="0 0 55.368 55.368"
   style="enable-background:new 0 0 55.368 55.368;"
   xml:space="preserve"
   sodipodi:docname="002-elegant-director-white.svg"
   inkscape:version="0.92.2 5c3e80d, 2017-08-06"><metadata
     id="metadata47"><rdf:RDF><cc:Work
         rdf:about=""><dc:format>image/svg+xml</dc:format><dc:type
           rdf:resource="http://purl.org/dc/dcmitype/StillImage" /><dc:title></dc:title></cc:Work></rdf:RDF></metadata><defs
     id="defs45" /><sodipodi:namedview
     pagecolor="#ffffff"
     bordercolor="#666666"
     borderopacity="1"
     objecttolerance="10"
     gridtolerance="10"
     guidetolerance="10"
     inkscape:pageopacity="0"
     inkscape:pageshadow="2"
     inkscape:window-width="774"
     inkscape:window-height="480"
     id="namedview43"
     showgrid="false"
     inkscape:zoom="4.2623898"
     inkscape:cx="27.684"
     inkscape:cy="27.684"
     inkscape:window-x="1440"
     inkscape:window-y="737"
     inkscape:window-maximized="0"
     inkscape:current-layer="Capa_1" /><g
     id="g10"
     style="fill:#ffffff;fill-opacity:1"><g
       id="g8"
       style="fill:#ffffff;fill-opacity:1"><path
         style="fill:#ffffff;fill-opacity:1"
         d="M 31.441,9.5159998 A 4.2290001,4.2290001 0 0 1 27.212,13.745 4.2290001,4.2290001 0 0 1 22.983,9.5159998 4.2290001,4.2290001 0 0 1 27.212,5.2869997 4.2290001,4.2290001 0 0 1 31.441,9.5159998 Z"
         id="circle2" /><path
         style="fill:#ffffff;fill-opacity:1"
         d="M27.78,19.419l-0.007,0.068l0.011-0.023c0-0.015-0.001-0.031,0-0.045H27.78z"
         id="path4" /><path
         style="fill:#ffffff;fill-opacity:1"
         d="M42.315,14.929c-1.236,1.207-2.646,2.213-4.143,3.076c-1.652-0.962-3.311-1.925-4.962-2.887    c-0.114-0.067-0.229-0.114-0.344-0.157l-0.003-0.03c-0.104-0.021-0.188-0.032-0.283-0.05c-0.08-0.017-0.159-0.035-0.234-0.041    c-1.656-0.263-2.322,0.013-2.322,0.013l-2.24,4.611c-0.094,4.618,3.076,10.501,3.076,10.501c-1.172-0.842-3.004-2.596-3.004-2.596    s-5.05,3.999-2.735,1.543c2.315-2.457,2.197-9.496,2.197-9.496h0.462l0.483-4.067h0.081v-0.682h-1.705v0.685h0.088l0.578,4.137    c0,0-2.203-4.813-2.4-4.736c0,0-0.643-0.735-2.919,0.178c-1.856,0.399-3.714,0.797-5.571,1.196    c-1.152-1.283-2.181-2.679-2.982-4.208c-0.33-0.629-0.839-0.94-1.379-1.024l0.045-10.332C12.1,0.253,11.85,0.001,11.54,0    c-0.314,0.008-0.563,0.249-0.564,0.558l-0.045,10.477c-0.99,0.4-1.708,1.479-1.069,2.699c0.981,1.874,5.192,7.146,5.192,7.146    s3.436-0.959,5.987-1.604c0.221,0.648,0.439,1.104,0.439,1.104l-0.042,16.319v16.249c0,1.338,0.978,2.42,2.352,2.42    c1.373,0,2.487-1.082,2.487-2.42v-16.93c0,0,0.079-0.857,0.954-0.869c0.874-0.009,0.852,0.826,0.852,0.826v16.926    c0,1.337,1.111,2.42,2.486,2.42c1.373,0,2.486-1.083,2.486-2.42l0.082-17.467c0-0.165,0.018-11.804,0.021-14.905l-0.04-0.763    c2.179,1.383,4.875,3.179,4.875,3.179s5.637-3.706,7.15-5.183C46.999,15.955,44.163,13.125,42.315,14.929z"
         id="path6" /></g></g><g
     id="g12" /><g
     id="g14" /><g
     id="g16" /><g
     id="g18" /><g
     id="g20" /><g
     id="g22" /><g
     id="g24" /><g
     id="g26" /><g
     id="g28" /><g
     id="g30" /><g
     id="g32" /><g
     id="g34" /><g
     id="g36" /><g
     id="g38" /><g
     id="g40" /></svg>