<?xml version="1.0" encoding="UTF-8" standalone="no"?>
<!-- Generator: Adobe Illustrator 19.0.0, SVG Export Plug-In . SVG Version: 6.00 Build 0)  -->

<svg
   xmlns:dc="http://purl.org/dc/elements/1.1/"
   xmlns:cc="http://creativecommons.org/ns#"
   xmlns:rdf="http://www.w3.org/1999/02/22-rdf-syntax-ns#"
   xmlns:svg="http://www.w3.org/2000/svg"
   xmlns="http://www.w3.org/2000/svg"
   xmlns:sodipodi="http://sodipodi.sourceforge.net/DTD/sodipodi-0.dtd"
   xmlns:inkscape="http://www.inkscape.org/namespaces/inkscape"
   version="1.1"
   id="Capa_1"
   x="0px"
   y="0px"
   viewBox="0 0 512 512"
   style="enable-background:new 0 0 512 512;"
   xml:space="preserve"
   sodipodi:docname="005-hourglass-white.svg"
   inkscape:version="0.92.2 5c3e80d, 2017-08-06"><metadata
     id="metadata43"><rdf:RDF><cc:Work
         rdf:about=""><dc:format>image/svg+xml</dc:format><dc:type
           rdf:resource="http://purl.org/dc/dcmitype/StillImage" /><dc:title></dc:title></cc:Work></rdf:RDF></metadata><defs
     id="defs41" /><sodipodi:namedview
     pagecolor="#ffffff"
     bordercolor="#666666"
     borderopacity="1"
     objecttolerance="10"
     gridtolerance="10"
     guidetolerance="10"
     inkscape:pageopacity="0"
     inkscape:pageshadow="2"
     inkscape:window-width="774"
     inkscape:window-height="480"
     id="namedview39"
     showgrid="false"
     inkscape:zoom="0.4609375"
     inkscape:cx="256"
     inkscape:cy="256"
     inkscape:window-x="531"
     inkscape:window-y="1240"
     inkscape:window-maximized="0"
     inkscape:current-layer="Capa_1" /><g
     id="g6"
     style="fill:#ffffff;fill-opacity:1"><g
       id="g4"
       style="fill:#ffffff;fill-opacity:1"><path
         d="M318.27,226.34C362.452,203.381,391,155.752,391,105V87.42c17.459-6.192,30-22.865,30-42.42V15c0-8.284-6.716-15-15-15    H106c-8.284,0-15,6.716-15,15v30c0,19.555,12.541,36.228,30,42.42V105c0,50.752,28.548,98.381,72.73,121.34    C204.221,231.792,211,243.826,211,257s-6.779,25.208-17.27,30.66C148.869,310.971,121,356.7,121,407v17.58    c-17.459,6.192-30,22.865-30,42.42v30c0,8.284,6.716,15,15,15h300c8.284,0,15-6.716,15-15v-30c0-19.555-12.541-36.228-30-42.42    V407c0-50.3-27.869-96.029-72.73-119.341C307.779,282.208,301,270.173,301,257C301,243.827,307.779,231.792,318.27,226.34z     M121,45V30h270v15c0,8.271-6.729,15-15,15H136C127.729,60,121,53.271,121,45z M391,467v15H121v-15c0-8.271,6.729-15,15-15    c10.266,0,227.039,0,240,0C384.271,452,391,458.729,391,467z M175.335,422c1.295-1.381,2.59-2.76,3.865-4.118    c26.717-28.458,63.307-67.433,74.709-85.049c0.489-0.755,1.193-1.138,2.092-1.138c0.899,0,1.603,0.383,2.139,1.21    c11.375,17.568,47.877,56.445,74.53,84.832c1.319,1.405,2.661,2.834,4.002,4.263H175.335z M271,257    c0,24.615,12.813,46.563,33.437,57.28c34.002,17.669,55.443,51.865,56.512,89.75c-1.964-2.095-4.084-4.354-6.407-6.828    c-24.414-26.002-61.309-65.297-71.265-80.674c-6.014-9.288-16.21-14.833-27.276-14.833c-11.065,0.001-21.262,5.547-27.275,14.836    c-9.937,15.351-46.923,54.748-71.397,80.818c-2.273,2.421-4.35,4.634-6.277,6.69c1.065-37.889,22.507-72.089,56.512-89.759    C228.188,303.563,241,281.614,241,257s-12.812-46.562-33.437-57.28C173.203,181.864,151,144.684,151,105V90h210v15    c0,39.684-22.203,76.864-56.564,94.72C283.812,210.437,271,232.386,271,257z"
         id="path2"
         style="fill:#ffffff;fill-opacity:1" /></g></g><g
     id="g8" /><g
     id="g10" /><g
     id="g12" /><g
     id="g14" /><g
     id="g16" /><g
     id="g18" /><g
     id="g20" /><g
     id="g22" /><g
     id="g24" /><g
     id="g26" /><g
     id="g28" /><g
     id="g30" /><g
     id="g32" /><g
     id="g34" /><g
     id="g36" /></svg>