<?xml version="1.0" encoding="UTF-8" standalone="no"?>
<!-- Generator: Adobe Illustrator 19.0.0, SVG Export Plug-In . SVG Version: 6.00 Build 0)  -->

<svg
   xmlns:dc="http://purl.org/dc/elements/1.1/"
   xmlns:cc="http://creativecommons.org/ns#"
   xmlns:rdf="http://www.w3.org/1999/02/22-rdf-syntax-ns#"
   xmlns:svg="http://www.w3.org/2000/svg"
   xmlns="http://www.w3.org/2000/svg"
   xmlns:sodipodi="http://sodipodi.sourceforge.net/DTD/sodipodi-0.dtd"
   xmlns:inkscape="http://www.inkscape.org/namespaces/inkscape"
   version="1.1"
   id="Capa_1"
   x="0px"
   y="0px"
   viewBox="0 0 512 512"
   style="enable-background:new 0 0 512 512;"
   xml:space="preserve"
   sodipodi:docname="008-speaker-white.svg"
   inkscape:version="0.92.2 5c3e80d, 2017-08-06"><metadata
     id="metadata51"><rdf:RDF><cc:Work
         rdf:about=""><dc:format>image/svg+xml</dc:format><dc:type
           rdf:resource="http://purl.org/dc/dcmitype/StillImage" /><dc:title></dc:title></cc:Work></rdf:RDF></metadata><defs
     id="defs49" /><sodipodi:namedview
     pagecolor="#ffffff"
     bordercolor="#666666"
     borderopacity="1"
     objecttolerance="10"
     gridtolerance="10"
     guidetolerance="10"
     inkscape:pageopacity="0"
     inkscape:pageshadow="2"
     inkscape:window-width="774"
     inkscape:window-height="480"
     id="namedview47"
     showgrid="false"
     inkscape:zoom="0.4609375"
     inkscape:cx="256"
     inkscape:cy="256"
     inkscape:window-x="1440"
     inkscape:window-y="737"
     inkscape:window-maximized="0"
     inkscape:current-layer="Capa_1" /><g
     id="g14"
     style="fill:#ffffff;fill-opacity:1"><g
       id="g12"
       style="fill:#ffffff;fill-opacity:1"><g
         id="g10"
         style="fill:#ffffff;fill-opacity:1"><path
           d="M400,0H112C85.49,0,64,21.49,64,48v416c0,26.51,21.49,48,48,48h288c26.51,0,48-21.49,48-48V48C448,21.49,426.51,0,400,0z      M416,464c0,8.837-7.163,16-16,16H112c-8.837,0-16-7.163-16-16V48c0-8.837,7.163-16,16-16h288c8.837,0,16,7.163,16,16V464z"
           id="path2"
           style="fill:#ffffff;fill-opacity:1" /><path
           d="M256,224c-61.856,0-112,50.144-112,112s50.144,112,112,112s112-50.144,112-112S317.856,224,256,224z M256,416     c-44.183,0-80-35.817-80-80c0-44.183,35.817-80,80-80s80,35.817,80,80C336,380.183,300.183,416,256,416z"
           id="path4"
           style="fill:#ffffff;fill-opacity:1" /><path
           d="M256,192c35.346,0,64-28.654,64-64c0-35.346-28.654-64-64-64c-35.346,0-64,28.654-64,64C192,163.346,220.654,192,256,192     z M256,96c17.673,0,32,14.327,32,32s-14.327,32-32,32c-17.673,0-32-14.327-32-32S238.327,96,256,96z"
           id="path6"
           style="fill:#ffffff;fill-opacity:1" /><circle
           cx="256"
           cy="336"
           r="32"
           id="circle8"
           style="fill:#ffffff;fill-opacity:1" /></g></g></g><g
     id="g16" /><g
     id="g18" /><g
     id="g20" /><g
     id="g22" /><g
     id="g24" /><g
     id="g26" /><g
     id="g28" /><g
     id="g30" /><g
     id="g32" /><g
     id="g34" /><g
     id="g36" /><g
     id="g38" /><g
     id="g40" /><g
     id="g42" /><g
     id="g44" /></svg>