<?xml version="1.0" encoding="UTF-8" standalone="no"?>
<!-- Generator: Adobe Illustrator 19.0.0, SVG Export Plug-In . SVG Version: 6.00 Build 0)  -->

<svg
   xmlns:dc="http://purl.org/dc/elements/1.1/"
   xmlns:cc="http://creativecommons.org/ns#"
   xmlns:rdf="http://www.w3.org/1999/02/22-rdf-syntax-ns#"
   xmlns:svg="http://www.w3.org/2000/svg"
   xmlns="http://www.w3.org/2000/svg"
   xmlns:sodipodi="http://sodipodi.sourceforge.net/DTD/sodipodi-0.dtd"
   xmlns:inkscape="http://www.inkscape.org/namespaces/inkscape"
   version="1.1"
   id="Layer_1"
   x="0px"
   y="0px"
   viewBox="0 0 512 512"
   style="enable-background:new 0 0 512 512;"
   xml:space="preserve"
   sodipodi:docname="009-metronome-white.svg"
   inkscape:version="0.92.2 5c3e80d, 2017-08-06"><metadata
     id="metadata43"><rdf:RDF><cc:Work
         rdf:about=""><dc:format>image/svg+xml</dc:format><dc:type
           rdf:resource="http://purl.org/dc/dcmitype/StillImage" /><dc:title></dc:title></cc:Work></rdf:RDF></metadata><defs
     id="defs41" /><sodipodi:namedview
     pagecolor="#ffffff"
     bordercolor="#666666"
     borderopacity="1"
     objecttolerance="10"
     gridtolerance="10"
     guidetolerance="10"
     inkscape:pageopacity="0"
     inkscape:pageshadow="2"
     inkscape:window-width="774"
     inkscape:window-height="480"
     id="namedview39"
     showgrid="false"
     inkscape:zoom="0.4609375"
     inkscape:cx="256"
     inkscape:cy="256"
     inkscape:window-x="1440"
     inkscape:window-y="737"
     inkscape:window-maximized="0"
     inkscape:current-layer="Layer_1" /><g
     id="g6"
     style="fill:#ffffff;fill-opacity:1"><g
       id="g4"
       style="fill:#ffffff;fill-opacity:1"><path
         d="M447.123,152.107c-6.42-6.42-16.83-6.42-23.251,0l-31.036,31.036l-1.53-1.53c-6.42-6.422-16.83-6.42-23.251,0    c-6.421,6.421-6.421,16.83,0,23.251l1.53,1.53L248.013,327.966V133.354c0-9.08-7.361-16.441-16.441-16.441    s-16.441,7.361-16.441,16.441v218.453H109.311L140.075,118.4c0.09-0.68,0.417-1.313,0.916-1.781l89.047-83.17    c0.86-0.803,2.209-0.801,3.067-0.001l89.048,83.172c0.502,0.468,0.828,1.1,0.917,1.781l5.633,42.733    c1.186,9.002,9.435,15.344,18.448,14.152c9.002-1.186,15.339-9.446,14.152-18.448l-5.633-42.732    c-1.082-8.218-5.015-15.86-11.074-21.517L255.549,9.416c-13.446-12.553-34.508-12.557-47.954,0.001l-89.05,83.172    c-6.056,5.658-9.988,13.3-11.07,21.515L60.373,471.465C57.544,492.938,74.28,512,95.917,512h271.311    c21.661,0,38.373-19.087,35.544-40.535l-22.349-169.565c-1.185-9.002-9.436-15.339-18.448-14.152    c-9.002,1.186-15.339,9.446-14.152,18.448l6.012,45.611h-83.159l122.161-122.162l1.531,1.531c6.419,6.421,16.829,6.422,23.251,0    c6.421-6.421,6.421-16.83,0-23.251l-1.531-1.531l31.036-31.036C453.544,168.938,453.544,158.528,447.123,152.107z     M358.167,384.689l12.004,91.074c0.112,0.846-0.148,1.701-0.708,2.341c-0.566,0.645-1.38,1.014-2.235,1.014H95.917    c-0.855,0-1.668-0.369-2.231-1.011c-0.564-0.643-0.824-1.499-0.712-2.347l12.003-91.072H358.167z"
         id="path2"
         style="fill:#ffffff;fill-opacity:1" /></g></g><g
     id="g8" /><g
     id="g10" /><g
     id="g12" /><g
     id="g14" /><g
     id="g16" /><g
     id="g18" /><g
     id="g20" /><g
     id="g22" /><g
     id="g24" /><g
     id="g26" /><g
     id="g28" /><g
     id="g30" /><g
     id="g32" /><g
     id="g34" /><g
     id="g36" /></svg>