<?xml version="1.0" encoding="UTF-8" standalone="no"?>
<!-- Generator: Adobe Illustrator 19.0.0, SVG Export Plug-In . SVG Version: 6.00 Build 0)  -->

<svg
   xmlns:dc="http://purl.org/dc/elements/1.1/"
   xmlns:cc="http://creativecommons.org/ns#"
   xmlns:rdf="http://www.w3.org/1999/02/22-rdf-syntax-ns#"
   xmlns:svg="http://www.w3.org/2000/svg"
   xmlns="http://www.w3.org/2000/svg"
   xmlns:sodipodi="http://sodipodi.sourceforge.net/DTD/sodipodi-0.dtd"
   xmlns:inkscape="http://www.inkscape.org/namespaces/inkscape"
   version="1.1"
   id="Layer_1"
   x="0px"
   y="0px"
   viewBox="0 0 512 512"
   style="enable-background:new 0 0 512 512;"
   xml:space="preserve"
   sodipodi:docname="010-guitar-white.svg"
   inkscape:version="0.92.2 5c3e80d, 2017-08-06"><metadata
     id="metadata61"><rdf:RDF><cc:Work
         rdf:about=""><dc:format>image/svg+xml</dc:format><dc:type
           rdf:resource="http://purl.org/dc/dcmitype/StillImage" /><dc:title></dc:title></cc:Work></rdf:RDF></metadata><defs
     id="defs59" /><sodipodi:namedview
     pagecolor="#ffffff"
     bordercolor="#666666"
     borderopacity="1"
     objecttolerance="10"
     gridtolerance="10"
     guidetolerance="10"
     inkscape:pageopacity="0"
     inkscape:pageshadow="2"
     inkscape:window-width="774"
     inkscape:window-height="480"
     id="namedview57"
     showgrid="false"
     inkscape:zoom="0.4609375"
     inkscape:cx="256"
     inkscape:cy="256"
     inkscape:window-x="1440"
     inkscape:window-y="737"
     inkscape:window-maximized="0"
     inkscape:current-layer="Layer_1" /><g
     id="g6"
     style="fill:#ffffff;fill-opacity:1"><g
       id="g4"
       style="fill:#ffffff;fill-opacity:1"><path
         d="M76.539,415.832c-13.36-19.191-17.361-43.166-10.978-65.781c1.5-5.316-1.592-10.842-6.909-12.343    c-5.316-1.497-10.841,1.593-12.342,6.908c-8.017,28.4-2.98,58.523,13.813,82.645c1.944,2.792,5.056,4.288,8.218,4.288    c1.971,0,3.965-0.582,5.706-1.794C78.58,426.598,79.697,420.365,76.539,415.832z"
         id="path2"
         style="fill:#ffffff;fill-opacity:1" /></g></g><g
     id="g12"
     style="fill:#ffffff;fill-opacity:1"><g
       id="g10"
       style="fill:#ffffff;fill-opacity:1"><path
         d="M94.076,433.946c-4.172-3.135-10.118-2.54-13.577,1.471c-3.606,4.184-3.138,10.498,1.045,14.106    c0.419,0.361,0.776,0.612,1.009,0.77l5.609-8.28l-5.607,8.281c1.717,1.163,3.667,1.72,5.595,1.72c3.207,0,6.356-1.54,8.29-4.396    C99.464,443.149,98.388,437.11,94.076,433.946z"
         id="path8"
         style="fill:#ffffff;fill-opacity:1" /></g></g><g
     id="g18"
     style="fill:#ffffff;fill-opacity:1"><g
       id="g16"
       style="fill:#ffffff;fill-opacity:1"><path
         d="M187.2,377.721l-52.922-52.92c-3.906-3.904-10.237-3.904-14.145,0L92.79,352.145c-1.875,1.876-2.929,4.42-2.929,7.072    s1.054,5.197,2.93,7.072l52.921,52.92c1.953,1.952,4.513,2.929,7.072,2.929c2.56,0,5.119-0.977,7.072-2.929l27.344-27.344    c1.875-1.876,2.929-4.42,2.929-7.072C190.129,382.141,189.075,379.596,187.2,377.721z M152.785,397.994l-38.778-38.776    l13.199-13.2l38.778,38.776L152.785,397.994z"
         id="path14"
         style="fill:#ffffff;fill-opacity:1" /></g></g><g
     id="g24"
     style="fill:#ffffff;fill-opacity:1"><g
       id="g22"
       style="fill:#ffffff;fill-opacity:1"><path
         d="M509.071,64.466l-1.086-1.086c1.866-1.875,2.914-4.411,2.914-7.056c0-2.652-1.053-5.196-2.929-7.072l-45.221-45.22    c-3.901-3.898-10.221-3.904-14.128-0.015l-1.088-1.088c-3.906-3.904-10.238-3.904-14.144,0c-3.904,3.906-3.904,10.238,0,14.145    l1.087,1.087l-8.947,8.946l-1.086-1.086c-3.904-3.905-10.237-3.905-14.145,0c-3.905,3.906-3.905,10.238,0,14.145l1.086,1.086    l-8.946,8.945l-1.086-1.086c-3.905-3.904-10.237-3.904-14.145,0.002c-3.904,3.907-3.904,10.238,0.002,14.145l1.085,1.085    c-1.865,1.874-2.914,4.411-2.914,7.056c0,2.652,1.054,5.197,2.929,7.072l0.465,0.465L283.878,183.833    c-15.181-9.443-31.019-14.708-46.234-15.29c-19.392-0.746-36.933,6.139-50.695,19.898c-10.135,10.138-17.928,18.808-23.825,26.511    c-11.531,15.075-14.291,15.649-24.128,15.649c-36.524,0-71.271,14.633-97.841,41.202c-54.874,54.878-54.874,144.167,0,199.041    c27.442,27.44,63.473,41.158,99.519,41.154c36.036-0.003,72.083-13.722,99.519-41.154c26.574-26.573,41.208-61.322,41.203-97.843    c0-9.833,0.573-12.594,15.653-24.13c7.706-5.897,16.377-13.69,26.507-23.822c13.76-13.76,20.64-31.288,19.897-50.692    c-0.582-15.212-5.845-31.05-15.286-46.232l104.9-104.899l0.463,0.464c1.953,1.952,4.513,2.929,7.072,2.929    c2.552,0,5.105-0.973,7.056-2.914l1.087,1.087c1.953,1.952,4.513,2.928,7.071,2.928c2.56,0,5.12-0.977,7.073-2.93    c3.904-3.906,3.904-10.238-0.002-14.145l-1.084-1.084l8.944-8.945l1.087,1.087c1.952,1.952,4.513,2.929,7.072,2.929    c2.559,0,5.12-0.977,7.071-2.929c3.906-3.906,3.906-10.237,0.001-14.145l-1.087-1.087l8.947-8.946l1.085,1.085    c1.953,1.952,4.514,2.929,7.073,2.929s5.119-0.976,7.071-2.929C512.976,74.706,512.976,68.373,509.071,64.466z M309.414,310.906    c-9.501,9.502-17.521,16.726-24.518,22.08c-17.343,13.27-23.501,21.31-23.501,40.017c0.004,31.179-12.549,60.904-35.345,83.698    c-47.077,47.074-123.675,47.074-170.749,0c-47.076-47.074-47.076-123.673,0-170.751c22.792-22.792,52.517-35.345,83.697-35.345    c18.712,0,26.751-6.157,40.013-23.496c5.355-6.993,12.58-15.016,22.085-24.524c17.431-17.43,42.367-18.747,68.202-4.169    l-51.122,51.122c-2.563-0.379-5.172-0.571-7.811-0.571c-14.069,0-27.297,5.48-37.245,15.428    c-20.537,20.534-20.537,53.949-0.001,74.488c9.949,9.948,23.177,15.428,37.246,15.428c14.069,0,27.298-5.48,37.244-15.428    c9.948-9.948,15.428-23.176,15.428-37.245c0-2.637-0.192-5.245-0.57-7.807l51.12-51.12    C328.158,268.542,326.84,293.478,309.414,310.906z M238.677,285.324c0.351,0.607,0.682,1.226,0.992,1.854    c0.001,0,0.001,0.001,0.002,0.001c0.625,1.267,1.168,2.574,1.624,3.914c0.005,0.015,0.01,0.028,0.015,0.043    c0.22,0.649,0.419,1.307,0.598,1.971c0.737,2.747,1.127,5.606,1.127,8.527c0,8.727-3.398,16.93-9.569,23.102    c-6.17,6.171-14.373,9.568-23.1,9.568c-8.727,0-16.931-3.397-23.102-9.568c-12.736-12.739-12.737-33.463,0-46.199    c6.171-6.172,14.375-9.569,23.102-9.569c2.932,0,5.803,0.393,8.559,1.136c0.651,0.176,1.297,0.371,1.936,0.587    c0.019,0.007,0.037,0.013,0.055,0.019c1.334,0.454,2.635,0.995,3.896,1.617c0.013,0.007,0.025,0.013,0.037,0.02    c0.607,0.3,1.205,0.621,1.793,0.959c0.031,0.019,0.064,0.036,0.096,0.055c1.155,0.67,2.267,1.415,3.334,2.223    c0.155,0.118,0.308,0.239,0.461,0.36c0.34,0.267,0.674,0.543,1.004,0.824c0.192,0.164,0.386,0.326,0.574,0.496    c0.326,0.29,0.643,0.592,0.957,0.896c0.132,0.128,0.268,0.249,0.398,0.379c0.114,0.114,0.221,0.233,0.333,0.35    c0.323,0.333,0.644,0.673,0.955,1.02c0.15,0.168,0.293,0.339,0.439,0.509c0.31,0.362,0.613,0.729,0.906,1.104    c0.098,0.124,0.196,0.248,0.292,0.373c0.823,1.086,1.582,2.218,2.263,3.393C238.662,285.302,238.67,285.313,238.677,285.324z     M254.745,273.262c-0.004-0.006-0.009-0.012-0.013-0.019c-0.474-0.737-0.967-1.464-1.479-2.18    c-0.054-0.075-0.105-0.152-0.16-0.227c-0.457-0.631-0.93-1.251-1.416-1.863c-0.113-0.143-0.223-0.29-0.338-0.433    c-0.418-0.514-0.852-1.018-1.289-1.518c-0.189-0.216-0.369-0.438-0.562-0.65c-0.343-0.379-0.702-0.746-1.058-1.116    c-0.273-0.287-0.537-0.584-0.818-0.865c-0.322-0.322-0.661-0.626-0.991-0.939c-0.323-0.307-0.642-0.621-0.972-0.92    c-0.256-0.231-0.523-0.45-0.783-0.677c-0.453-0.394-0.906-0.787-1.37-1.163c-0.185-0.149-0.374-0.292-0.562-0.44    c-0.568-0.449-1.143-0.889-1.727-1.313c-0.111-0.081-0.225-0.158-0.337-0.237c-0.685-0.488-1.378-0.96-2.083-1.413    c-0.014-0.01-0.027-0.02-0.043-0.029L402.917,93.08l16.004,16.006L254.745,273.262z M463.707,79.372    c-0.01,0.01-0.021,0.018-0.03,0.027c-0.01,0.01-0.017,0.021-0.027,0.03l-23.039,23.038c-0.002,0.003-0.005,0.005-0.008,0.008    l-31.077-31.077l0.001-0.001l46.15-46.15l31.077,31.078L463.707,79.372z"
         id="path20"
         style="fill:#ffffff;fill-opacity:1" /></g></g><g
     id="g26" /><g
     id="g28" /><g
     id="g30" /><g
     id="g32" /><g
     id="g34" /><g
     id="g36" /><g
     id="g38" /><g
     id="g40" /><g
     id="g42" /><g
     id="g44" /><g
     id="g46" /><g
     id="g48" /><g
     id="g50" /><g
     id="g52" /><g
     id="g54" /></svg>