<?xml version="1.0" encoding="iso-8859-1"?>
<!-- Generator: Adobe Illustrator 19.0.0, SVG Export Plug-In . SVG Version: 6.00 Build 0)  -->
<svg version="1.1" id="Capa_1" xmlns="http://www.w3.org/2000/svg" xmlns:xlink="http://www.w3.org/1999/xlink" x="0px" y="0px"
	 viewBox="0 0 512 512" style="enable-background:new 0 0 512 512;" xml:space="preserve">
<g>
	<g>
		<path d="M365.124,223.536c-2.669-4.681-7.644-7.57-13.031-7.57H281V101.79c0-6.759-4.521-12.683-11.039-14.468
			c-6.52-1.783-13.426,1.011-16.869,6.828L146.999,273.394c-2.744,4.637-2.791,10.389-0.123,15.07
			c2.669,4.681,7.644,7.57,13.031,7.57H231V410.21c0,6.759,4.521,12.683,11.039,14.468c6.533,1.787,13.433-1.022,16.869-6.828
			l106.093-179.245C367.745,233.969,367.792,228.217,365.124,223.536z M261,355.419v-74.384c0-8.284-6.716-15-15-15h-59.784
			L251,156.581v74.384c0,8.284,6.716,15,15,15h59.784L261,355.419z"/>
	</g>
</g>
<g>
	<g>
		<path d="M68.974,241H15c-8.284,0-15,6.716-15,15s6.716,15,15,15h53.974c8.284,0,15-6.716,15-15S77.258,241,68.974,241z"/>
	</g>
</g>
<g>
	<g>
		<path d="M497,241h-53.974c-8.284,0-15,6.716-15,15s6.716,15,15,15H497c8.284,0,15-6.716,15-15S505.284,241,497,241z"/>
	</g>
</g>
<g>
	<g>
		<path d="M169.979,405.196c-7.175-4.138-16.348-1.675-20.487,5.502l-26.987,46.807c-4.138,7.177-1.674,16.349,5.503,20.487
			c7.175,4.138,16.349,1.675,20.487-5.502l26.987-46.807C179.62,418.506,177.156,409.334,169.979,405.196z"/>
	</g>
</g>
<g>
	<g>
		<path d="M383.992,34.008c-7.175-4.138-16.348-1.676-20.487,5.502l-26.987,46.807c-4.138,7.177-1.674,16.349,5.503,20.487
			c7.175,4.138,16.349,1.675,20.487-5.502l26.987-46.807C393.633,47.318,391.169,38.146,383.992,34.008z"/>
	</g>
</g>
<g>
	<g>
		<path d="M389.495,457.505l-26.987-46.807c-4.139-7.178-13.312-9.64-20.487-5.502c-7.177,4.138-9.641,13.31-5.503,20.487
			l26.987,46.807c4.137,7.175,13.309,9.641,20.487,5.502C391.169,473.854,393.633,464.682,389.495,457.505z"/>
	</g>
</g>
<g>
	<g>
		<path d="M175.482,86.317L148.495,39.51c-4.139-7.178-13.312-9.641-20.487-5.502c-7.177,4.138-9.641,13.31-5.503,20.487
			l26.987,46.807c4.137,7.175,13.309,9.641,20.487,5.502C177.156,102.666,179.62,93.494,175.482,86.317z"/>
	</g>
</g>
<g>
</g>
<g>
</g>
<g>
</g>
<g>
</g>
<g>
</g>
<g>
</g>
<g>
</g>
<g>
</g>
<g>
</g>
<g>
</g>
<g>
</g>
<g>
</g>
<g>
</g>
<g>
</g>
<g>
</g>
</svg>
