<?xml version="1.0" encoding="UTF-8" standalone="no"?>
<!-- Created with Inkscape (http://www.inkscape.org/) -->

<svg
   xmlns:dc="http://purl.org/dc/elements/1.1/"
   xmlns:cc="http://creativecommons.org/ns#"
   xmlns:rdf="http://www.w3.org/1999/02/22-rdf-syntax-ns#"
   xmlns:svg="http://www.w3.org/2000/svg"
   xmlns="http://www.w3.org/2000/svg"
   xmlns:sodipodi="http://sodipodi.sourceforge.net/DTD/sodipodi-0.dtd"
   xmlns:inkscape="http://www.inkscape.org/namespaces/inkscape"
   version="1.1"
   id="svg2"
   width="47.842625"
   height="49.731148"
   viewBox="0 0 47.842625 49.731148"
   sodipodi:docname="f-major-key-signature.svg"
   inkscape:version="0.92.2 5c3e80d, 2017-08-06">
  <metadata
     id="metadata8">
    <rdf:RDF>
      <cc:Work
         rdf:about="">
        <dc:format>image/svg+xml</dc:format>
        <dc:type
           rdf:resource="http://purl.org/dc/dcmitype/StillImage" />
        <dc:title></dc:title>
      </cc:Work>
    </rdf:RDF>
  </metadata>
  <defs
     id="defs6" />
  <sodipodi:namedview
     pagecolor="#ffffff"
     bordercolor="#666666"
     borderopacity="1"
     objecttolerance="10"
     gridtolerance="10"
     guidetolerance="10"
     inkscape:pageopacity="0"
     inkscape:pageshadow="2"
     inkscape:window-width="1264"
     inkscape:window-height="795"
     id="namedview4"
     showgrid="false"
     inkscape:zoom="4.7455169"
     inkscape:cx="23.921312"
     inkscape:cy="24.865574"
     inkscape:window-x="1440"
     inkscape:window-y="737"
     inkscape:window-maximized="0"
     inkscape:current-layer="svg2" />
  <path
     style="fill:#000000;stroke-width:0.3147541"
     d="M 10.412375,48.505446 C 9.3924504,47.883499 8.3916644,46.161331 8.3916644,45.028179 c 0,-1.398714 0.893485,-2.864703 2.0372246,-3.342588 1.412415,-0.590145 2.471157,-0.327266 3.4719,0.862048 1.139106,1.353751 1.083885,3.154286 -0.134093,4.372265 -0.506028,0.50603 -1.151764,0.920052 -1.434969,0.920052 -0.297416,0 -0.423632,0.147704 -0.298805,0.349679 0.134352,0.217388 0.903753,0.299942 2.033703,0.218206 1.364738,-0.09872 2.099814,-0.346733 2.950335,-0.995457 2.055216,-1.567592 2.440721,-3.089343 1.645883,-6.497019 l -0.403789,-1.731147 -9.3402516,-0.08337 c -5.86652,-0.05237 -9.34025295,-0.198692 -9.34025295,-0.393443 0,-0.192746 2.29260495,-0.311235 6.05901695,-0.313146 l 6.0590156,-0.0031 -1.617698,-0.753226 C 8.1223884,36.726913 6.2031394,35.048002 5.3880394,33.534453 l -0.601823,-1.117448 h -2.603833 c -1.52605295,0 -2.60383395,-0.130283 -2.60383395,-0.314754 0,-0.182781 1.022794,-0.314657 2.43934495,-0.314519 l 2.439344,2.33e-4 v -2.124824 c 0,-1.168654 0.108928,-2.514333 0.242062,-2.990399 l 0.242062,-0.865573 h -2.681406 c -1.57776895,0 -2.68140695,-0.12955 -2.68140695,-0.314755 0,-0.186454 1.151404,-0.314754 2.82470395,-0.314754 h 2.824704 l 0.526865,-1.022951 c 0.618759,-1.20137 1.811164,-2.875772 2.913929,-4.091803 l 0.784951,-0.865574 h -4.937576 c -3.081882,0 -4.93757695,-0.118294 -4.93757695,-0.314754 0,-0.197334 1.97079695,-0.314754 5.28288395,-0.314754 h 5.2828826 l 1.593297,-1.652459 c 1.572089,-1.630464 1.589506,-1.670265 1.30843,-2.990164 L 12.761176,12.587496 H 6.1698634 c -4.184373,0 -6.59131395,-0.114938 -6.59131395,-0.314754 0,-0.199844 2.41311495,-0.314754 6.60983595,-0.314754 h 6.6098366 l 0.0055,-1.652459 c 0.01245,-3.774945 1.553937,-8.3277658 3.42722,-10.12248478 l 0.936,-0.8967449 0.964257,1.52047578 c 1.801159,2.8401329 2.346293,4.7044812 2.363168,8.0819964 l 0.01533,3.0684875 13.455739,3.78e-4 c 8.760411,2.24e-4 13.455737,0.110183 13.455737,0.315105 0,0.20499 -4.752693,0.314754 -13.628573,0.314754 H 20.164027 l -0.393418,1.087979 c -0.21638,0.598388 -1.023557,1.943962 -1.793728,2.990164 l -1.400308,1.902185 h 5.507546 5.507546 v -2.072131 c 0,-1.518691 0.105083,-2.036664 0.393443,-1.93934 0.257832,0.08702 0.393442,0.801432 0.393442,2.072705 v 1.939914 l 9.521312,-5.67e-4 c 6.043635,-3.77e-4 9.521312,0.112705 9.521312,0.309565 0,0.195012 -3.534427,0.341062 -9.521312,0.393443 l -9.521312,0.0833 -0.09761,1.536017 c -0.08785,1.382477 -0.04065,1.510842 0.472131,1.284166 2.379489,-1.051843 4.818918,-0.07789 4.818918,1.923974 v 1.078794 h 6.924591 c 4.406557,0 6.92459,0.114456 6.92459,0.314754 0,0.20048 -2.562876,0.314755 -7.059123,0.314755 -6.98237,0 -7.065361,0.0078 -7.632787,0.72147 -0.315516,0.396809 -1.56514,1.470543 -2.776943,2.386077 l -2.203279,1.664606 -0.09193,-2.386077 -0.09193,-2.386076 h -3.630582 -3.630582 l 1.013201,0.852552 c 1.142351,0.961225 2.16537,2.965296 2.175727,4.262202 l 0.0069,0.865573 h 11.960656 c 7.763936,0 11.960656,0.110441 11.960656,0.314755 0,0.204196 -4.17357,0.316375 -11.881968,0.319371 l -11.881967,0.0046 -0.788351,1.64086 c -0.551948,1.148815 -1.297326,2.020492 -2.485676,2.906858 l -1.697326,1.265989 14.367644,0.08186 c 9.215853,0.05251 14.367644,0.193586 14.367644,0.393443 0,0.200917 -4.956002,0.311578 -13.954098,0.311578 -7.674755,0 -14.027627,0.07353 -14.117493,0.163392 -0.08986,0.08986 0.01928,1.213836 0.242535,2.497712 0.615211,3.53783 -0.165564,5.48748 -2.719306,6.7903 -1.653952,0.843784 -5.09756,0.858285 -6.460437,0.02719 z m 7.173497,-10.992812 c 0.220856,-0.220856 0.155107,-1.077749 -0.207884,-2.709324 l -0.530902,-2.386305 h -2.181809 c -2.546692,0 -2.748714,0.328933 -1.171005,1.906641 0.955204,0.955204 0.968189,0.998016 0.236066,0.778324 -1.159289,-0.347875 -2.121539,-1.02713 -2.69508,-1.902465 -0.441065,-0.673148 -0.749576,-0.7825 -2.2076616,-0.7825 -2.004124,0 -2.107392,0.280449 -0.778674,2.114691 1.803852,2.490145 4.1621916,3.609096 7.2176806,3.424534 1.097937,-0.06632 2.141608,-0.265936 2.319269,-0.443596 z m 2.526098,-2.130369 c 0.473708,-0.678764 0.898627,-1.588211 0.944262,-2.020998 0.078,-0.739757 -0.016,-0.792582 -1.569485,-0.882023 -1.157565,-0.06665 -1.65246,0.02194 -1.65246,0.295809 0,1.126836 0.802614,4.043448 1.086938,3.949818 0.181201,-0.05967 0.717036,-0.663845 1.190745,-1.342606 z m -9.831781,-4.439657 c 0,-1.295965 1.143534,-3.307227 2.435565,-4.283701 l 1.163599,-0.879409 -2.665156,0.09252 -2.6651556,0.09252 -0.748469,1.509354 c -0.411658,0.830145 -0.819586,2.140309 -0.906508,2.911475 l -0.158039,1.402121 h 1.772082 c 1.7128256,0 1.7720816,-0.02825 1.7720816,-0.844888 z m 6.14755,-0.650194 c -0.120456,-0.822295 -0.334292,-1.614934 -0.475193,-1.761421 -0.65615,-0.682162 -3.776621,1.809523 -3.782656,3.020438 -6.61e-4,0.129836 1.006381,0.236065 2.237841,0.236065 h 2.239017 z m 4.55409,1.164698 c 0,-0.63245 -0.945301,-2.15268 -1.642008,-2.640673 -0.794076,-0.556192 -2.449796,-0.663307 -2.449796,-0.158486 0,0.183014 0.158454,0.96203 0.35212,1.731148 l 0.35212,1.398395 h 1.693782 c 0.972774,0 1.693782,-0.140638 1.693782,-0.330384 z m 8.780509,-3.929748 c 0.537277,-0.611926 0.976868,-1.249303 0.976868,-1.416394 0,-0.167091 -0.566557,-0.303801 -1.259016,-0.303801 h -1.259017 v 1.416393 c 0,0.779016 0.126967,1.416393 0.282148,1.416393 0.155182,0 0.721739,-0.500666 1.259017,-1.112591 z M 15.316255,25.003729 c 0,-0.531164 -1.020403,-4.54738 -1.155356,-4.54738 -0.335779,0 -3.623945,2.974424 -4.2316856,3.827918 l -0.636152,0.893393 h 3.0115966 c 1.656378,0 3.011597,-0.07827 3.011597,-0.173931 z m 12.27541,-2.816233 v -2.990164 h -5.941788 c -4.406402,0 -6.02716,0.102867 -6.27217,0.398086 -0.293277,0.353377 0.166425,3.666305 0.719999,5.1888 0.107231,0.294918 1.564276,0.393442 5.818506,0.393442 h 5.675453 z m 3.777049,2.056976 c 0,-1.356902 -1.053332,-1.8605 -2.163896,-1.034557 -0.454447,0.337979 -0.871529,0.918987 -0.926848,1.291127 -0.09165,0.61657 0.04103,0.676618 1.495082,0.676618 1.558915,0 1.595662,-0.02149 1.595662,-0.933188 z m -16.052459,-10.555336 1.067751,-1.10164 h -1.320761 c -1.240411,0 -1.320761,0.05425 -1.320761,0.891803 0,0.723388 0.207548,1.311476 0.462846,1.311476 0.02374,0 0.523662,-0.495738 1.110925,-1.101639 z m 2.470934,-2.975097 c 1.836616,-2.5353748 1.99858,-5.6158165 0.372635,-7.0872759 -0.583653,-0.5281996 -0.675489,-0.5312262 -1.415062,-0.046639 -1.053457,0.6902513 -2.006432,2.6294107 -2.548103,5.185005 -0.684487,3.2293959 -0.697276,3.1928589 1.117621,3.1928589 1.468749,0 1.630874,-0.08155 2.472909,-1.243949 z"
     id="path817"
     inkscape:connector-curvature="0" />
</svg>
