<?xml version="1.0" encoding="UTF-8" standalone="no"?>
<!-- Created with Inkscape (http://www.inkscape.org/) -->

<svg
   xmlns:dc="http://purl.org/dc/elements/1.1/"
   xmlns:cc="http://creativecommons.org/ns#"
   xmlns:rdf="http://www.w3.org/1999/02/22-rdf-syntax-ns#"
   xmlns:svg="http://www.w3.org/2000/svg"
   xmlns="http://www.w3.org/2000/svg"
   xmlns:sodipodi="http://sodipodi.sourceforge.net/DTD/sodipodi-0.dtd"
   xmlns:inkscape="http://www.inkscape.org/namespaces/inkscape"
   version="1.1"
   id="svg2"
   width="266.66666"
   height="266.66666"
   viewBox="0 0 266.66666 266.66666"
   sodipodi:docname="no-voice.svg"
   inkscape:version="0.92.2 5c3e80d, 2017-08-06">
  <metadata
     id="metadata8">
    <rdf:RDF>
      <cc:Work
         rdf:about="">
        <dc:format>image/svg+xml</dc:format>
        <dc:type
           rdf:resource="http://purl.org/dc/dcmitype/StillImage" />
        <dc:title></dc:title>
      </cc:Work>
    </rdf:RDF>
  </metadata>
  <defs
     id="defs6" />
  <sodipodi:namedview
     pagecolor="#ffffff"
     bordercolor="#666666"
     borderopacity="1"
     objecttolerance="10"
     gridtolerance="10"
     guidetolerance="10"
     inkscape:pageopacity="0"
     inkscape:pageshadow="2"
     inkscape:window-width="1128"
     inkscape:window-height="704"
     id="namedview4"
     showgrid="false"
     inkscape:zoom="1.2515791"
     inkscape:cx="180.65958"
     inkscape:cy="182.31434"
     inkscape:window-x="1440"
     inkscape:window-y="737"
     inkscape:window-maximized="0"
     inkscape:current-layer="svg2" />
  <path
     style="fill:#000000;stroke-width:1.33333325"
     d="m 55.073675,252.02763 c -14.44056,-2.19278 -29.80382,-13.63717 -36.24504,-26.99964 -5.12685,-10.63578 -5.68343,-21.23765 -5.18583,-98.78135 0.42343,-65.98526 0.71141,-74.19928 2.79008,-79.57998 5.19082,-13.43663 17.55884,-25.56441 30.90045,-30.30022 C 53.432935,14.20129 60.748025,14 133.33333,14 c 72.5853,0 79.9004,0.20129 86,2.36644 13.7299,4.87364 26.09325,17.23699 30.96689,30.96689 2.16429,6.09719 2.36644,13.38651 2.36644,85.33333 0,71.23541 -0.2204,79.35941 -2.33315,86 -4.315,13.56255 -16.46176,26.20443 -30.33352,31.56999 -5.41952,2.09625 -13.35277,2.34602 -81.99999,2.58176 -41.800002,0.14353 -79.116845,-0.21231 -82.926325,-0.79078 z M 217.33333,233.83467 c 7.23916,-3.41688 13.68346,-9.95085 16.93242,-17.16801 2.20298,-4.89365 2.4328,-11.42275 2.78784,-79.19717 0.3746,-71.51045 -0.1375,-83.80924 -3.72538,-89.46949 -1.00339,-1.58294 -20.5981,17.32329 -93.96465,90.66306 -50.983291,50.9647 -92.696895,93.09653 -92.696895,93.62632 0,0.52979 2.85,1.85152 6.33333,2.93719 5.32588,1.65993 18.422861,1.93146 82.333335,1.70701 74.42274,-0.26139 76.12452,-0.32569 82,-3.09891 z m -11.13748,-30.9516 c -2.07527,-2.29314 -2.04758,-2.60397 0.43208,-4.84802 3.79461,-3.43408 8.03873,-15.70953 8.03873,-23.25077 0,-7.70592 -2.8456,-16.3524 -7.30639,-22.2008 -3.23197,-4.23734 -3.23617,-4.2825 -0.6193,-6.65074 2.5345,-2.29368 2.71309,-2.28704 4.69278,0.17475 9.08247,11.2942 12.33767,30.14424 7.43183,43.03591 -2.68617,7.05881 -8.12091,16.16315 -9.65893,16.18082 -0.43635,0.005 -1.7912,-1.09351 -3.0108,-2.44115 z m -82.93811,-41.47411 c 22.68288,-22.69175 41.62462,-41.02101 42.09275,-40.73169 1.86673,1.1537 12.27907,29.96091 11.53253,31.90637 -0.54177,1.41182 -2.53134,2.08302 -6.17452,2.08302 h -5.37517 l -0.0196,5.66667 c -0.0189,5.49008 -0.23253,5.77053 -6.85388,9 -3.75888,1.83333 -6.79733,3.93333 -6.75212,4.66667 0.0452,0.73333 2.82945,2.18868 6.18721,3.23409 3.35776,1.04541 6.10502,2.37453 6.10502,2.9536 0,2.28643 -8.86922,10.97823 -12.93635,12.67759 -2.3712,0.99076 -7.33057,1.80138 -11.02079,1.80138 -6.5661,0 -6.70949,0.0855 -6.70949,4 v 4 h -25.6586 -25.658601 z m 69.8026,35.07996 c -2.11566,-2.11567 -2.04034,-2.61698 1.23202,-8.20084 4.87036,-8.31064 4.85954,-18.95063 -0.0277,-27.29014 -3.4263,-5.84654 -3.45113,-6.05085 -1.00474,-8.2648 2.40076,-2.17266 2.66288,-2.00646 6.10866,3.87334 7.91469,13.5054 7.12901,27.2446 -2.27394,39.76469 -1.67198,2.22623 -1.91858,2.23343 -4.03426,0.11773 z m -13.41858,-8.15559 c -1.83507,-2.03424 -1.86156,-2.66509 -0.20666,-4.92151 2.42264,-3.3032 2.43159,-12.35804 0.0168,-16.98656 -1.66866,-3.19838 -1.60481,-3.81021 0.60647,-5.8114 2.3432,-2.12057 2.61319,-2.00422 5.20159,2.2414 3.67697,6.03118 3.72004,17.52111 0.088,23.47807 -3.0845,5.05893 -2.97984,5.02225 -5.70619,2 z m -51.97867,-60.66307 c 50.78529,-50.78135 92.3369,-92.75811 92.3369,-93.28168 0,-0.52357 -3.1089,-1.87518 -6.90866,-3.00359 -10.55955,-3.13585 -149.233313,-3.05236 -159.849325,0.0962 -9.93436,2.94642 -18.81435,11.8264 -21.76077,21.76076 -3.1486,10.61602 -3.23209,149.28979 -0.0962,159.84933 1.12841,3.79976 2.4768,6.90867 2.99643,6.90867 0.51962,0 42.496376,-41.54839 93.281675,-92.32973 z m -55.663092,42.45087 c 0,-6.01673 -0.529813,-7.09033 -6.738817,-13.65544 -26.984666,-28.53231 -17.777826,-74.55186 18.292014,-91.43097 22.087445,-10.33596 50.441895,-4.17921 67.336765,14.6212 9.32464,10.37634 12.39904,5.73877 -35.6396,53.76036 l -43.250362,43.235 z"
     id="path4524"
     inkscape:connector-curvature="0" />
</svg>
