<?xml version="1.0" encoding="UTF-8" standalone="no"?>
<!-- Created with Inkscape (http://www.inkscape.org/) -->

<svg
   xmlns:dc="http://purl.org/dc/elements/1.1/"
   xmlns:cc="http://creativecommons.org/ns#"
   xmlns:rdf="http://www.w3.org/1999/02/22-rdf-syntax-ns#"
   xmlns:svg="http://www.w3.org/2000/svg"
   xmlns="http://www.w3.org/2000/svg"
   xmlns:sodipodi="http://sodipodi.sourceforge.net/DTD/sodipodi-0.dtd"
   xmlns:inkscape="http://www.inkscape.org/namespaces/inkscape"
   version="1.1"
   id="svg2"
   width="53.333332"
   height="53.333332"
   viewBox="0 0 53.333332 53.333332"
   sodipodi:docname="time_signature1600-white.svg"
   inkscape:version="0.92.2 5c3e80d, 2017-08-06">
  <metadata
     id="metadata8">
    <rdf:RDF>
      <cc:Work
         rdf:about="">
        <dc:format>image/svg+xml</dc:format>
        <dc:type
           rdf:resource="http://purl.org/dc/dcmitype/StillImage" />
        <dc:title></dc:title>
      </cc:Work>
    </rdf:RDF>
  </metadata>
  <defs
     id="defs6" />
  <sodipodi:namedview
     pagecolor="#ffffff"
     bordercolor="#666666"
     borderopacity="1"
     objecttolerance="10"
     gridtolerance="10"
     guidetolerance="10"
     inkscape:pageopacity="0"
     inkscape:pageshadow="2"
     inkscape:window-width="1129"
     inkscape:window-height="701"
     id="namedview4"
     showgrid="false"
     inkscape:zoom="4.4250001"
     inkscape:cx="26.666666"
     inkscape:cy="26.666666"
     inkscape:window-x="1440"
     inkscape:window-y="737"
     inkscape:window-maximized="0"
     inkscape:current-layer="svg2" />
  <path
     style="fill:#ffffff;stroke-width:0.03333333;fill-opacity:1"
     d="m 21.238141,46.403555 c -2.212755,-0.12463 -3.894636,-0.748833 -5.01979,-1.86302 -0.617126,-0.61111 -0.948911,-1.213777 -1.096477,-1.99168 -0.06453,-0.34016 -0.06528,-1.06465 -0.0015,-1.428953 0.265397,-1.51542 1.430755,-2.571687 3.47302,-3.1479 0.23543,-0.06643 0.465554,-0.13215 0.511387,-0.146054 0.07476,-0.02267 0.05074,-0.0417 -0.233333,-0.18484 -1.70017,-0.856686 -2.697629,-2.0108 -3.054232,-3.533906 -0.04955,-0.211617 -0.06238,-0.39741 -0.06217,-0.9 2.33e-4,-0.588508 0.0068,-0.656926 0.09236,-0.966667 0.275472,-0.997094 0.883509,-1.778052 1.936179,-2.486811 0.946336,-0.637165 1.965883,-1.006117 3.271199,-1.183779 0.60737,-0.08267 2.025345,-0.08272 2.633333,-10e-5 1.597811,0.217142 2.810901,0.756357 3.721088,1.654013 0.672338,0.663082 1.003334,1.37162 1.051093,2.25 0.09551,1.756573 -0.938961,2.991746 -3.172181,3.787636 -0.201666,0.07187 -0.389166,0.13898 -0.416666,0.14913 -0.02909,0.01074 0.08241,0.07142 0.266666,0.145124 1.138485,0.455403 1.905627,0.893566 2.524249,1.441753 1.145426,1.015013 1.649135,2.40012 1.424062,3.915907 -0.152193,1.024973 -0.693382,1.961416 -1.571088,2.718526 -1.11455,0.961414 -2.520524,1.52119 -4.288511,1.70743 -0.46458,0.04894 -1.605551,0.08576 -1.988712,0.06418 z m 1.489254,-1.082553 c 0.349475,-0.04852 0.812424,-0.20083 1.077412,-0.35447 0.28884,-0.167467 0.753761,-0.632264 0.926244,-0.925997 0.287329,-0.48931 0.432294,-1.14184 0.396182,-1.783333 -0.03468,-0.616147 -0.178776,-1.014864 -0.523553,-1.44873 -0.449971,-0.56624 -1.09599,-0.982284 -2.539629,-1.63555 -0.390084,-0.17652 -1.000143,-0.457914 -1.355687,-0.62532 l -0.646444,-0.304377 -0.09513,0.113953 c -0.226179,0.270927 -0.531342,0.980747 -0.695721,1.618274 -0.250561,0.971773 -0.269473,2.145586 -0.04832,2.999206 0.329325,1.271157 1.175577,2.117784 2.332063,2.333087 0.292758,0.0545 0.831619,0.06059 1.172588,0.01326 z m 1.227407,-9.3888 c 0.274215,-0.672257 0.422888,-1.47012 0.490728,-2.63351 0.04631,-0.79422 0.01068,-1.333024 -0.122882,-1.857873 -0.351525,-1.381405 -1.340029,-2.087766 -2.617841,-1.870645 -0.481892,0.08188 -0.869383,0.284094 -1.215942,0.634542 -0.303525,0.306931 -0.455117,0.543691 -0.587328,0.917304 -0.245363,0.693368 -0.203578,1.660652 0.0975,2.257092 0.220733,0.437266 0.607397,0.832456 1.172434,1.19828 0.213074,0.137953 2.676403,1.40812 2.7381,1.411846 0.01179,7e-4 0.03214,-0.02495 0.04523,-0.05704 z m -21.6020594,8.52708 c -0.15878,-0.038 -0.44481,-0.20541 -0.535872,-0.31363 -0.04533,-0.05387 -0.122233,-0.174567 -0.170891,-0.268204 -0.07518,-0.144666 -0.08858,-0.212816 -0.0892,-0.45358 -6.65e-4,-0.259463 0.0088,-0.30103 0.112539,-0.49338 0.125722,-0.233146 0.229419,-0.333593 0.481903,-0.4668 l 0.170248,-0.08982 4.856902,-0.0089 4.8569014,-0.0089 0.03616,0.14221 c 0.132547,0.521257 0.506162,1.40467 0.782636,1.850543 l 0.08784,0.141667 -5.2435564,-0.0034 c -2.883955,-0.0019 -5.289485,-0.0144 -5.345621,-0.02784 z M 31.132888,44.249155 c 0.312588,-0.46995 0.602286,-1.06312 0.790089,-1.617747 l 0.09306,-0.274813 8.902721,0.0086 8.902719,0.0086 0.20985,0.113787 c 0.36474,0.19777 0.555437,0.519197 0.555437,0.936213 0,0.417017 -0.190697,0.738444 -0.555437,0.936214 l -0.20985,0.113786 -9.424759,0.0086 -9.424762,0.0086 z M 2.3527426,35.925948 c -0.15878,-0.038 -0.44481,-0.20541 -0.535872,-0.31363 -0.04533,-0.05387 -0.122233,-0.174566 -0.170891,-0.268203 -0.07518,-0.144667 -0.08858,-0.212817 -0.0892,-0.45358 -6.65e-4,-0.259463 0.0088,-0.30103 0.112539,-0.49338 0.125722,-0.233147 0.229419,-0.333593 0.481903,-0.4668 l 0.170248,-0.08982 5.204528,-0.0088 5.2045284,-0.0088 0.0235,0.125506 c 0.05736,0.306417 0.345754,1.08809 0.563861,1.528334 l 0.238054,0.48051 -5.5505674,-0.0034 c -3.052812,-0.0019 -5.596497,-0.0144 -5.652633,-0.02784 z M 30.921038,35.815765 c -0.05111,-0.07804 -0.158493,-0.228733 -0.238621,-0.334863 l -0.145689,-0.19297 0.0971,-0.141134 c 0.143448,-0.208493 0.414497,-0.734123 0.540532,-1.04822 l 0.110463,-0.275293 9.268324,0.0086 9.268323,0.0086 0.173887,0.09166 c 0.231167,0.12186 0.399097,0.295327 0.505453,0.52212 0.12433,0.26512 0.122497,0.644534 -0.0043,0.889797 -0.12949,0.25048 -0.23067,0.355477 -0.464993,0.48253 l -0.210047,0.11389 -9.403749,0.0086 -9.403752,0.0086 z M 2.3527426,27.392615 c -0.15878,-0.038 -0.44481,-0.205409 -0.535872,-0.31363 -0.04533,-0.05387 -0.122233,-0.174565 -0.170891,-0.268202 -0.07518,-0.144668 -0.08858,-0.212818 -0.0892,-0.453581 -6.65e-4,-0.259462 0.0088,-0.30103 0.112539,-0.49338 0.125722,-0.233146 0.229419,-0.333593 0.481903,-0.4668 l 0.170248,-0.08982 6.086075,-0.0088 6.0860754,-0.0088 0.531578,0.527499 0.531577,0.527499 -0.230534,0.181271 c -0.126793,0.0997 -0.39946,0.342522 -0.605927,0.539605 L 14.344921,27.42381 8.3998616,27.42041 C 5.1300796,27.41851 2.4088736,27.406 2.3527376,27.39257 Z M 29.738141,26.962139 c -0.2475,-0.250768 -0.580448,-0.553216 -0.739884,-0.672106 -0.159437,-0.118891 -0.286937,-0.226685 -0.283334,-0.239544 0.0036,-0.01286 0.170128,-0.189229 0.370055,-0.391933 l 0.363504,-0.368552 10.186495,0.0086 10.186496,0.0086 0.173887,0.09166 c 0.231167,0.121859 0.399097,0.295327 0.505453,0.52212 0.12433,0.265119 0.122497,0.644533 -0.0043,0.889797 -0.12949,0.250479 -0.23067,0.355475 -0.464993,0.482529 l -0.210047,0.11389 -9.816666,0.0054 -9.816666,0.0054 z m -8.433334,-2.757664 c -0.06417,-0.0075 -0.259166,-0.0297 -0.433333,-0.04932 -1.122279,-0.126475 -2.174986,-0.537336 -3.030529,-1.182786 -0.341078,-0.257321 -0.887052,-0.799611 -1.145817,-1.138085 -0.634564,-0.830035 -1.034819,-1.823838 -1.246009,-3.093748 -0.09339,-0.561578 -0.08572,-2.287055 0.01298,-2.917085 0.337593,-2.155108 1.152446,-3.78577 2.623517,-5.250118 1.632704,-1.6252405 3.763154,-2.6829355 6.435861,-3.1951835 0.54797,-0.105023 1.190716,-0.197555 1.267667,-0.182497 0.04682,0.0092 0.08504,0.121807 0.18486,0.544884 0.06921,0.293333 0.115703,0.542419 0.10332,0.553525 -0.01238,0.01111 -0.232514,0.05343 -0.48918,0.09405 -0.668179,0.105752 -0.961659,0.179853 -1.477626,0.373087 -1.040262,0.389588 -1.849398,0.916195 -2.543022,1.6550655 -0.810636,0.863513 -1.283974,1.788935 -1.674738,3.274271 -0.129404,0.49188 -0.265261,1.133801 -0.244378,1.154684 0.0072,0.0072 0.116652,-0.0717 0.243132,-0.17542 0.546357,-0.448061 1.113595,-0.770652 1.691585,-0.962013 1.113043,-0.368505 2.439933,-0.420536 3.438377,-0.134827 0.374355,0.107124 1.025434,0.42764 1.333333,0.656381 0.340177,0.252719 0.872346,0.800105 1.109392,1.141112 0.64181,0.923288 0.949809,2.086904 0.896444,3.386749 -0.06104,1.486719 -0.585459,2.650301 -1.660189,3.68361 -0.970866,0.933448 -2.146388,1.48931 -3.595647,1.700252 -0.335378,0.04882 -1.556751,0.09184 -1.8,0.06341 z m 1.002707,-1.041715 c 0.724505,-0.189128 1.313424,-0.959384 1.599459,-2.091955 0.164117,-0.649833 0.203134,-0.996251 0.221161,-1.963603 0.01847,-0.991453 -0.01799,-1.424279 -0.170729,-2.026389 -0.295787,-1.166024 -0.946521,-1.959153 -1.743845,-2.125437 -0.287769,-0.06001 -0.966306,-0.0226 -1.258753,0.0694 -0.415513,0.130724 -0.611012,0.251759 -0.934197,0.578369 -0.165476,0.167229 -0.342242,0.365604 -0.392814,0.440833 l -0.09195,0.13678 -0.01976,0.996554 c -0.04275,2.155524 0.194864,3.674229 0.743353,4.751173 0.534022,1.048539 1.206676,1.453913 2.048077,1.234271 z M 2.3527426,18.859282 c -0.15878,-0.038 -0.44481,-0.205409 -0.535872,-0.31363 -0.04533,-0.05387 -0.122233,-0.174565 -0.170891,-0.268202 -0.07518,-0.144668 -0.08858,-0.212818 -0.0892,-0.453581 -6.65e-4,-0.259462 0.0088,-0.30103 0.112539,-0.49338 0.125722,-0.233146 0.229419,-0.333593 0.481903,-0.4668 l 0.170248,-0.08982 4.974273,-0.0089 4.9742724,-0.0089 -0.01581,0.0922 c -0.04471,0.260804 -0.08253,0.924604 -0.08263,1.450532 l -1.06e-4,0.591735 -4.8583334,-0.0034 c -2.672083,-0.0019 -4.904262,-0.01441 -4.960398,-0.02784 z M 31.525439,18.623299 c -0.03845,-0.461034 -0.166819,-1.125456 -0.317125,-1.641386 l -0.06563,-0.22529 9.339396,0.0086 9.339396,0.0086 0.20985,0.113787 c 0.36474,0.197771 0.555437,0.519198 0.555437,0.936213 0,0.417015 -0.190697,0.738442 -0.555437,0.936213 l -0.20985,0.113787 -9.136849,0.0086 -9.136849,0.0086 z M 2.3527426,10.325949 c -0.15878,-0.038 -0.44481,-0.205409 -0.535872,-0.31363 -0.04533,-0.053879 -0.122233,-0.1745645 -0.170891,-0.2682015 -0.07518,-0.144668 -0.08858,-0.212819 -0.0892,-0.453581 -6.66e-4,-0.259462 0.0088,-0.301031 0.112539,-0.49338 0.125721,-0.233146 0.229419,-0.333594 0.481903,-0.4668 l 0.170248,-0.08982 7.410188,-0.0087 7.4101894,-0.0087 -0.293522,0.235314 c -0.680206,0.545316 -1.148666,1.000078 -1.741329,1.6904125 l -0.178858,0.208333 -6.2366684,-0.0034 c -3.430167,-0.0019 -6.282596,-0.01441 -6.338732,-0.02784 z M 29.378089,9.3158035 c -0.132404,-0.573063 -0.240558,-1.053302 -0.240342,-1.067196 2e-4,-0.01389 4.654143,-0.02139 10.34206,-0.01667 l 10.341666,0.0086 0.20985,0.113786 c 0.36474,0.197771 0.555437,0.519198 0.555437,0.936214 0,0.417015 -0.190697,0.7384415 -0.555437,0.9362125 l -0.20985,0.113787 -10.101323,0.0086 -10.101324,0.0086 z"
     id="path817"
     inkscape:connector-curvature="0" />
</svg>
